<?xml version="1.0" encoding="UTF-8"?>
<!DOCTYPE svg  PUBLIC '-//W3C//DTD SVG 1.1//EN'  'http://www.w3.org/Graphics/SVG/1.1/DTD/svg11.dtd'>
<svg enable-background="new 0 0 64 64" version="1.1" viewBox="0 0 64 64" xmlns="http://www.w3.org/2000/svg">
 <path d="m44.224 34.354l0.755-1.214c0.799-1.236 3.454-5.683 3.454-9.946 0-9.365-7.622-16.988-16.987-16.988-9.366 0-16.984 7.623-16.984 16.988 0 4.259 2.657 8.706 3.472 9.975-0.021-0.029 1.204 1.914 1.204 1.914 2.138 3.349 4.153 6.517 4.629 10.384 0.102 0.826 0.801 1.446 1.631 1.446h12.355c0.827 0 1.529-0.62 1.632-1.442 0.513-4.169 2.615-7.547 4.839-11.117z" fill="#f1f1f1"/>
 <path d="m37.975 48.773h-13.184c-0.622 0-1.126 0.506-1.126 1.128 0 0.623 0.504 1.125 1.126 1.125h13.184c0.62 0 1.125-0.502 1.125-1.125 0-0.621-0.505-1.128-1.125-1.128z" fill="#f1f1f1"/>
 <path d="m37.975 52.741h-13.184c-0.622 0-1.126 0.507-1.126 1.128 0 0.623 0.504 1.125 1.126 1.125h2.728c0.112 0.77 0.762 1.363 1.563 1.363h4.727c0.802 0 1.454-0.593 1.564-1.363h2.602c0.62 0 1.125-0.502 1.125-1.125 0-0.621-0.505-1.128-1.125-1.128z" fill="#f1f1f1"/>
</svg>
